<svg width="23" height="22" viewBox="0 0 23 22" fill="none" xmlns="http://www.w3.org/2000/svg">
<path d="M14.25 1L12.1375 2.56641C11.8168 2.80425 11.6564 2.92317 11.483 2.96938C11.3298 3.01021 11.1701 3.01021 11.017 2.96938C10.8436 2.92317 10.6832 2.80425 10.3625 2.56641L8.25 1M21.25 14L19.6836 11.8875C19.4457 11.5668 19.3268 11.4064 19.2806 11.233C19.2398 11.0798 19.2398 10.9201 19.2806 10.767C19.3268 10.5936 19.4457 10.4332 19.6836 10.1125L21.25 8M14.25 21L12.1375 19.4336C11.8168 19.1957 11.6564 19.0768 11.483 19.0306C11.3298 18.9898 11.1702 18.9898 11.017 19.0306C10.8436 19.0768 10.6832 19.1957 10.3625 19.4336L8.25 21M1.25 14L2.81641 11.8875C3.05425 11.5668 3.17317 11.4064 3.21938 11.233C3.26021 11.0798 3.26021 10.9201 3.21938 10.767C3.17317 10.5936 3.05425 10.4332 2.81641 10.1125L1.25 8M11.25 15C9.04086 15 7.25 13.2091 7.25 11C7.25 8.79086 9.04086 7 11.25 7C13.4591 7 15.25 8.79086 15.25 11C15.25 13.2091 13.4591 15 11.25 15Z" stroke="#424242" stroke-width="2" stroke-linecap="round"/>
</svg>
