<svg width="19" height="20" viewBox="0 0 19 20" fill="none" xmlns="http://www.w3.org/2000/svg">
<path d="M6.75 18.4161V11.4161C6.75 10.8638 7.19772 10.4161 7.75 10.4161H11.75C12.3023 10.4161 12.75 10.8638 12.75 11.4161V18.4161M1.75 16.4161V8.85709C1.75 7.65736 2.28851 6.52098 3.21705 5.76126L8.48352 1.45233C9.22026 0.849549 10.2797 0.849549 11.0165 1.45233L16.283 5.76126C17.2115 6.52098 17.75 7.65736 17.75 8.85709V16.4161C17.75 17.5207 16.8546 18.4161 15.75 18.4161H13.75H5.75H3.75C2.64543 18.4161 1.75 17.5207 1.75 16.4161Z" stroke="#424242" stroke-width="2" stroke-linecap="round"/>
</svg>
